<?xml version="1.0" encoding="utf-8"?>
<svg xmlns="http://www.w3.org/2000/svg" width="802" height="1140" viewBox="0 0 802 1140" version="1.1">
  <path d="M 365.03 54.63 C 363.38 56.08 362.03 57.71 362.03 58.26 C 362.03 58.80 361.26 60.67 360.33 62.41 C 358.26 66.28 358.22 67.43 360.06 71.41 C 362.60 76.94 366.15 80.79 369.21 81.37 C 373.31 82.13 375.49 80.56 377.94 75.08 C 381.62 66.88 381.78 65.04 379.23 59.83 C 375.20 51.60 370.46 49.87 365.03 54.63 Z M 366.34 57.63 C 365.37 58.86 364.58 60.80 364.58 61.93 C 364.58 63.05 364.00 65.10 363.29 66.47 C 362.05 68.86 362.12 69.15 364.78 73.24 C 367.46 77.37 370.10 79.02 372.55 78.07 C 373.20 77.83 374.77 74.90 376.05 71.56 C 378.10 66.18 378.22 65.34 377.11 64.06 C 376.42 63.27 375.61 61.59 375.32 60.34 C 374.10 55.20 369.38 53.77 366.34 57.63 Z M 404.97 54.63 C 406.62 56.08 407.97 57.71 407.97 58.26 C 407.97 58.80 408.74 60.67 409.67 62.41 C 411.74 66.28 411.78 67.43 409.94 71.41 C 407.40 76.94 403.85 80.79 400.79 81.37 C 396.69 82.13 394.51 80.56 392.06 75.08 C 388.38 66.88 388.22 65.04 390.77 59.83 C 394.80 51.60 399.54 49.87 404.97 54.63 Z M 403.66 57.63 C 404.63 58.86 405.42 60.80 405.42 61.93 C 405.42 63.05 406.00 65.10 406.71 66.47 C 407.95 68.86 407.88 69.15 405.22 73.24 C 402.54 77.37 399.90 79.02 397.45 78.07 C 396.80 77.83 395.23 74.90 393.95 71.56 C 391.90 66.18 391.78 65.34 392.89 64.06 C 393.58 63.27 394.39 61.59 394.68 60.34 C 395.90 55.20 400.62 53.77 403.66 57.63 Z M 365.03 1111.37 C 363.38 1109.92 362.03 1108.29 362.03 1107.74 C 362.03 1107.20 361.26 1105.33 360.33 1103.59 C 358.26 1099.72 358.22 1098.57 360.06 1094.59 C 362.60 1089.06 366.15 1085.21 369.21 1084.63 C 373.31 1083.87 375.49 1085.44 377.94 1090.92 C 381.62 1099.12 381.78 1100.96 379.23 1106.17 C 375.20 1114.40 370.46 1116.13 365.03 1111.37 Z M 366.34 1108.37 C 365.37 1107.14 364.58 1105.20 364.58 1104.07 C 364.58 1102.95 364.00 1100.90 363.29 1099.53 C 362.05 1097.14 362.12 1096.85 364.78 1092.76 C 367.46 1088.63 370.10 1086.98 372.55 1087.93 C 373.20 1088.17 374.77 1091.10 376.05 1094.44 C 378.10 1099.82 378.22 1100.66 377.11 1101.94 C 376.42 1102.73 375.61 1104.41 375.32 1105.66 C 374.10 1110.80 369.38 1112.23 366.34 1108.37 Z M 404.97 1111.37 C 406.62 1109.92 407.97 1108.29 407.97 1107.74 C 407.97 1107.20 408.74 1105.33 409.67 1103.59 C 411.74 1099.72 411.78 1098.57 409.94 1094.59 C 407.40 1089.06 403.85 1085.21 400.79 1084.63 C 396.69 1083.87 394.51 1085.44 392.06 1090.92 C 388.38 1099.12 388.22 1100.96 390.77 1106.17 C 394.80 1114.40 399.54 1116.13 404.97 1111.37 Z M 403.66 1108.37 C 404.63 1107.14 405.42 1105.20 405.42 1104.07 C 405.42 1102.95 406.00 1100.90 406.71 1099.53 C 407.95 1097.14 407.88 1096.85 405.22 1092.76 C 402.54 1088.63 399.90 1086.98 397.45 1087.93 C 396.80 1088.17 395.23 1091.10 393.95 1094.44 C 391.90 1099.82 391.78 1100.66 392.89 1101.94 C 393.58 1102.73 394.39 1104.41 394.68 1105.66 C 395.90 1110.80 400.62 1112.23 403.66 1108.37 Z M 328.81 58.50 C 323.45 63.82 322.95 64.60 322.95 67.82 C 322.95 72.08 326.56 76.73 331.00 78.19 C 332.58 78.71 334.48 80.07 335.23 81.22 C 336.22 82.73 337.36 83.30 339.42 83.30 C 343.80 83.30 344.81 81.65 349.66 66.58 C 351.05 62.26 350.08 59.71 346.32 57.75 C 344.92 57.03 342.44 55.59 340.80 54.57 C 339.17 53.54 337.12 52.70 336.25 52.70 C 335.39 52.70 332.04 55.31 328.81 58.50 Z M 333.93 57.47 C 333.30 58.22 332.39 59.65 331.89 60.64 C 331.39 61.64 330.23 62.60 329.31 62.78 C 327.12 63.19 326.38 64.42 326.37 67.67 C 326.35 70.72 328.94 74.43 331.69 75.29 C 332.73 75.62 334.68 76.81 336.03 77.93 C 339.91 81.18 341.76 80.32 343.54 74.45 C 344.38 71.69 345.43 68.99 345.88 68.45 C 346.92 67.20 347.29 62.75 346.46 61.42 C 346.08 60.80 344.86 60.60 343.32 60.91 C 341.39 61.30 340.80 61.10 340.80 60.08 C 340.80 58.68 337.72 56.10 336.04 56.10 C 335.50 56.10 334.55 56.71 333.93 57.47 Z M 441.19 58.50 C 446.55 63.82 447.05 64.60 447.05 67.82 C 447.05 72.08 443.44 76.73 439.00 78.19 C 437.42 78.71 435.52 80.07 434.77 81.22 C 433.78 82.73 432.64 83.30 430.58 83.30 C 426.20 83.30 425.19 81.65 420.34 66.58 C 418.95 62.26 419.92 59.71 423.68 57.75 C 425.08 57.03 427.56 55.59 429.20 54.57 C 430.83 53.54 432.88 52.70 433.75 52.70 C 434.61 52.70 437.96 55.31 441.19 58.50 Z M 436.07 57.47 C 436.70 58.22 437.61 59.65 438.11 60.64 C 438.61 61.64 439.77 62.60 440.69 62.78 C 442.88 63.19 443.62 64.42 443.63 67.67 C 443.65 70.72 441.06 74.43 438.31 75.29 C 437.27 75.62 435.32 76.81 433.97 77.93 C 430.09 81.18 428.24 80.32 426.46 74.45 C 425.62 71.69 424.57 68.99 424.12 68.45 C 423.08 67.20 422.71 62.75 423.54 61.42 C 423.92 60.80 425.14 60.60 426.68 60.91 C 428.61 61.30 429.20 61.10 429.20 60.08 C 429.20 58.68 432.28 56.10 433.96 56.10 C 434.50 56.10 435.45 56.71 436.07 57.47 Z M 328.81 1107.50 C 323.45 1102.18 322.95 1101.40 322.95 1098.18 C 322.95 1093.92 326.56 1089.27 331.00 1087.81 C 332.58 1087.29 334.48 1085.93 335.23 1084.78 C 336.22 1083.27 337.36 1082.70 339.42 1082.70 C 343.80 1082.70 344.81 1084.35 349.66 1099.42 C 351.05 1103.74 350.08 1106.29 346.32 1108.25 C 344.92 1108.97 342.44 1110.41 340.80 1111.43 C 339.17 1112.46 337.12 1113.30 336.25 1113.30 C 335.39 1113.30 332.04 1110.69 328.81 1107.50 Z M 333.93 1108.53 C 333.30 1107.78 332.39 1106.35 331.89 1105.36 C 331.39 1104.36 330.23 1103.40 329.31 1103.22 C 327.12 1102.81 326.38 1101.58 326.37 1098.33 C 326.35 1095.28 328.94 1091.57 331.69 1090.71 C 332.73 1090.38 334.68 1089.19 336.03 1088.07 C 339.91 1084.82 341.76 1085.68 343.54 1091.55 C 344.38 1094.31 345.43 1097.01 345.88 1097.55 C 346.92 1098.80 347.29 1103.25 346.46 1104.58 C 346.08 1105.20 344.86 1105.40 343.32 1105.09 C 341.39 1104.70 340.80 1104.90 340.80 1105.92 C 340.80 1107.32 337.72 1109.90 336.04 1109.90 C 335.50 1109.90 334.55 1109.29 333.93 1108.53 Z M 441.19 1107.50 C 446.55 1102.18 447.05 1101.40 447.05 1098.18 C 447.05 1093.92 443.44 1089.27 439.00 1087.81 C 437.42 1087.29 435.52 1085.93 434.77 1084.78 C 433.78 1083.27 432.64 1082.70 430.58 1082.70 C 426.20 1082.70 425.19 1084.35 420.34 1099.42 C 418.95 1103.74 419.92 1106.29 423.68 1108.25 C 425.08 1108.97 427.56 1110.41 429.20 1111.43 C 430.83 1112.46 432.88 1113.30 433.75 1113.30 C 434.61 1113.30 437.96 1110.69 441.19 1107.50 Z M 436.07 1108.53 C 436.70 1107.78 437.61 1106.35 438.11 1105.36 C 438.61 1104.36 439.77 1103.40 440.69 1103.22 C 442.88 1102.81 443.62 1101.58 443.63 1098.33 C 443.65 1095.28 441.06 1091.57 438.31 1090.71 C 437.27 1090.38 435.32 1089.19 433.97 1088.07 C 430.09 1084.82 428.24 1085.68 426.46 1091.55 C 425.62 1094.31 424.57 1097.01 424.12 1097.55 C 423.08 1098.80 422.71 1103.25 423.54 1104.58 C 423.92 1105.20 425.14 1105.40 426.68 1105.09 C 428.61 1104.70 429.20 1104.90 429.20 1105.92 C 429.20 1107.32 432.28 1109.90 433.96 1109.90 C 434.50 1109.90 435.45 1109.29 436.07 1108.53 Z M 289.47 60.81 C 281.76 62.41 281.22 67.44 287.66 77.40 C 290.13 81.21 291.42 84.23 291.35 86.02 C 291.21 90.11 292.94 94.89 295.61 97.75 C 297.69 99.98 298.65 100.28 303.60 100.28 C 308.89 100.28 309.42 100.08 312.61 96.81 C 316.64 92.68 318.77 86.42 318.78 78.66 C 318.78 71.98 317.08 69.56 309.59 65.61 C 301.44 61.32 294.73 59.72 289.47 60.81 Z M 288.20 64.42 C 284.86 66.48 287.05 71.95 294.53 80.28 C 298.09 84.24 298.14 84.40 296.16 86.58 C 294.94 87.94 294.87 88.74 295.75 91.41 C 297.19 95.77 298.65 96.76 303.90 96.92 C 309.26 97.09 311.03 95.85 313.43 90.24 C 315.51 85.40 315.99 75.00 314.21 73.32 C 313.30 72.47 312.95 72.48 312.62 73.37 C 311.93 75.26 310.80 74.69 309.64 71.87 C 307.49 66.68 292.81 61.58 288.20 64.42 Z M 480.53 60.81 C 488.24 62.41 488.78 67.44 482.34 77.40 C 479.87 81.21 478.58 84.23 478.65 86.02 C 478.79 90.11 477.06 94.89 474.39 97.75 C 472.31 99.98 471.35 100.28 466.40 100.28 C 461.11 100.28 460.58 100.08 457.39 96.81 C 453.36 92.68 451.23 86.42 451.22 78.66 C 451.22 71.98 452.92 69.56 460.41 65.61 C 468.56 61.32 475.27 59.72 480.53 60.81 Z M 481.80 64.42 C 485.14 66.48 482.95 71.95 475.47 80.28 C 471.91 84.24 471.86 84.40 473.84 86.58 C 475.06 87.94 475.13 88.74 474.25 91.41 C 472.81 95.77 471.35 96.76 466.10 96.92 C 460.74 97.09 458.97 95.85 456.57 90.24 C 454.49 85.40 454.01 75.00 455.79 73.32 C 456.70 72.47 457.05 72.48 457.38 73.37 C 458.07 75.26 459.20 74.69 460.36 71.87 C 462.51 66.68 477.19 61.58 481.80 64.42 Z M 289.47 1105.19 C 281.76 1103.59 281.22 1098.56 287.66 1088.60 C 290.13 1084.79 291.42 1081.77 291.35 1079.98 C 291.21 1075.89 292.94 1071.11 295.61 1068.25 C 297.69 1066.02 298.65 1065.72 303.60 1065.72 C 308.89 1065.72 309.42 1065.92 312.61 1069.19 C 316.64 1073.32 318.77 1079.58 318.78 1087.34 C 318.78 1094.02 317.08 1096.44 309.59 1100.39 C 301.44 1104.68 294.73 1106.28 289.47 1105.19 Z M 288.20 1101.58 C 284.86 1099.52 287.05 1094.05 294.53 1085.72 C 298.09 1081.76 298.14 1081.60 296.16 1079.42 C 294.94 1078.06 294.87 1077.26 295.75 1074.59 C 297.19 1070.23 298.65 1069.24 303.90 1069.08 C 309.26 1068.91 311.03 1070.15 313.43 1075.76 C 315.51 1080.60 315.99 1091.00 314.21 1092.68 C 313.30 1093.53 312.95 1093.52 312.62 1092.63 C 311.93 1090.74 310.80 1091.31 309.64 1094.13 C 307.49 1099.32 292.81 1104.42 288.20 1101.58 Z M 480.53 1105.19 C 488.24 1103.59 488.78 1098.56 482.34 1088.60 C 479.87 1084.79 478.58 1081.77 478.65 1079.98 C 478.79 1075.89 477.06 1071.11 474.39 1068.25 C 472.31 1066.02 471.35 1065.72 466.40 1065.72 C 461.11 1065.72 460.58 1065.92 457.39 1069.19 C 453.36 1073.32 451.23 1079.58 451.22 1087.34 C 451.22 1094.02 452.92 1096.44 460.41 1100.39 C 468.56 1104.68 475.27 1106.28 480.53 1105.19 Z M 481.80 1101.58 C 485.14 1099.52 482.95 1094.05 475.47 1085.72 C 471.91 1081.76 471.86 1081.60 473.84 1079.42 C 475.06 1078.06 475.13 1077.26 474.25 1074.59 C 472.81 1070.23 471.35 1069.24 466.10 1069.08 C 460.74 1068.91 458.97 1070.15 456.57 1075.76 C 454.49 1080.60 454.01 1091.00 455.79 1092.68 C 456.70 1093.53 457.05 1093.52 457.38 1092.63 C 458.07 1090.74 459.20 1091.31 460.36 1094.13 C 462.51 1099.32 477.19 1104.42 481.80 1101.58 Z M 250.09 73.26 C 249.51 73.80 248.82 75.17 248.55 76.31 C 247.64 80.14 248.38 85.52 253.37 111.10 C 255.32 121.12 256.61 129.94 257.81 141.50 C 258.68 149.77 258.80 153.35 258.53 162.40 C 258.22 173.33 258.22 173.33 259.64 177.38 C 261.66 183.08 262.83 184.39 265.93 184.39 C 268.74 184.39 271.88 181.53 273.78 177.26 C 275.24 173.98 277.37 164.37 278.32 156.82 C 280.36 140.50 277.52 119.06 270.77 99.87 C 268.20 92.57 262.67 81.81 260.23 79.37 C 259.31 78.45 257.44 76.46 256.09 74.95 C 253.50 72.07 251.86 71.61 250.09 73.26 Z M 250.29 78.45 C 249.78 80.59 249.89 82.01 251.07 88.19 C 257.91 124.02 258.57 128.21 260.30 146.66 C 261.46 159.08 261.52 163.16 260.54 165.24 C 259.98 166.42 259.92 167.47 260.28 169.59 C 260.54 171.12 260.87 173.50 261.01 174.87 C 261.61 180.81 266.88 182.66 270.53 178.23 C 273.00 175.24 273.78 172.86 275.33 163.65 C 277.14 152.89 277.48 146.25 276.69 137.23 C 274.60 113.29 268.30 94.26 258.23 81.41 C 253.28 75.09 251.26 74.34 250.29 78.45 Z M 519.91 73.26 C 520.49 73.80 521.18 75.17 521.45 76.31 C 522.36 80.14 521.62 85.52 516.63 111.10 C 514.68 121.12 513.39 129.94 512.19 141.50 C 511.32 149.77 511.20 153.35 511.47 162.40 C 511.78 173.33 511.78 173.33 510.36 177.38 C 508.34 183.08 507.17 184.39 504.07 184.39 C 501.26 184.39 498.12 181.53 496.22 177.26 C 494.76 173.98 492.63 164.37 491.68 156.82 C 489.64 140.50 492.48 119.06 499.23 99.87 C 501.80 92.57 507.33 81.81 509.77 79.37 C 510.69 78.45 512.56 76.46 513.91 74.95 C 516.50 72.07 518.14 71.61 519.91 73.26 Z M 519.71 78.45 C 520.22 80.59 520.11 82.01 518.93 88.19 C 512.09 124.02 511.43 128.21 509.70 146.66 C 508.54 159.08 508.48 163.16 509.46 165.24 C 510.02 166.42 510.08 167.47 509.72 169.59 C 509.46 171.12 509.13 173.50 508.99 174.87 C 508.39 180.81 503.12 182.66 499.47 178.23 C 497.00 175.24 496.22 172.86 494.67 163.65 C 492.86 152.89 492.52 146.25 493.31 137.23 C 495.40 113.29 501.70 94.26 511.77 81.41 C 516.72 75.09 518.74 74.34 519.71 78.45 Z M 250.09 1092.74 C 249.51 1092.20 248.82 1090.83 248.55 1089.69 C 247.64 1085.86 248.38 1080.48 253.37 1054.90 C 255.32 1044.88 256.61 1036.06 257.81 1024.50 C 258.68 1016.23 258.80 1012.65 258.53 1003.60 C 258.22 992.67 258.22 992.67 259.64 988.62 C 261.66 982.92 262.83 981.61 265.93 981.61 C 268.74 981.61 271.88 984.47 273.78 988.74 C 275.24 992.02 277.37 1001.63 278.32 1009.18 C 280.36 1025.50 277.52 1046.94 270.77 1066.13 C 268.20 1073.43 262.67 1084.19 260.23 1086.63 C 259.31 1087.55 257.44 1089.54 256.09 1091.05 C 253.50 1093.93 251.86 1094.39 250.09 1092.74 Z M 250.29 1087.55 C 249.78 1085.41 249.89 1083.99 251.07 1077.81 C 257.91 1041.98 258.57 1037.79 260.30 1019.34 C 261.46 1006.92 261.52 1002.84 260.54 1000.76 C 259.98 999.58 259.92 998.53 260.28 996.41 C 260.54 994.88 260.87 992.50 261.01 991.13 C 261.61 985.19 266.88 983.34 270.53 987.77 C 273.00 990.76 273.78 993.14 275.33 1002.35 C 277.14 1013.11 277.48 1019.75 276.69 1028.77 C 274.60 1052.71 268.30 1071.74 258.23 1084.59 C 253.28 1090.91 251.26 1091.66 250.29 1087.55 Z M 519.91 1092.74 C 520.49 1092.20 521.18 1090.83 521.45 1089.69 C 522.36 1085.86 521.62 1080.48 516.63 1054.90 C 514.68 1044.88 513.39 1036.06 512.19 1024.50 C 511.32 1016.23 511.20 1012.65 511.47 1003.60 C 511.78 992.67 511.78 992.67 510.36 988.62 C 508.34 982.92 507.17 981.61 504.07 981.61 C 501.26 981.61 498.12 984.47 496.22 988.74 C 494.76 992.02 492.63 1001.63 491.68 1009.18 C 489.64 1025.50 492.48 1046.94 499.23 1066.13 C 501.80 1073.43 507.33 1084.19 509.77 1086.63 C 510.69 1087.55 512.56 1089.54 513.91 1091.05 C 516.50 1093.93 518.14 1094.39 519.91 1092.74 Z M 519.71 1087.55 C 520.22 1085.41 520.11 1083.99 518.93 1077.81 C 512.09 1041.98 511.43 1037.79 509.70 1019.34 C 508.54 1006.92 508.48 1002.84 509.46 1000.76 C 510.02 999.58 510.08 998.53 509.72 996.41 C 509.46 994.88 509.13 992.50 508.99 991.13 C 508.39 985.19 503.12 983.34 499.47 987.77 C 497.00 990.76 496.22 993.14 494.67 1002.35 C 492.86 1013.11 492.52 1019.75 493.31 1028.77 C 495.40 1052.71 501.70 1071.74 511.77 1084.59 C 516.72 1090.91 518.74 1091.66 519.71 1087.55 Z M 245.35 250.77 C 238.30 255.47 235.46 258.28 233.19 262.80 C 231.98 265.20 230.78 268.50 230.51 270.13 C 230.25 271.77 229.62 273.57 229.12 274.14 C 228.61 274.71 228.03 276.49 227.81 278.10 C 227.49 280.51 227.67 281.28 228.82 282.51 C 230.87 284.67 233.82 284.42 238.46 281.68 C 243.41 278.75 246.85 275.00 247.95 271.34 C 248.42 269.77 249.59 267.44 250.55 266.17 C 254.56 260.84 256.51 254.63 255.23 251.25 C 253.80 247.49 250.51 247.33 245.35 250.77 Z M 249.28 251.62 C 246.06 252.59 240.15 256.61 237.56 259.57 C 236.39 260.92 233.05 268.06 232.54 270.31 C 232.19 271.85 232.39 272.24 233.83 272.78 C 236.52 273.80 237.66 273.62 237.06 272.28 C 236.10 270.15 236.57 267.53 238.38 264.92 C 240.88 261.31 247.20 254.41 248.78 253.57 C 251.56 252.08 250.65 253.80 246.15 258.53 C 240.36 264.63 239.15 266.82 239.63 270.38 C 239.88 272.23 239.64 273.63 238.88 274.94 C 237.73 276.89 237.84 276.87 233.04 275.65 C 231.03 275.13 229.10 278.03 230.15 279.99 C 231.07 281.70 235.07 281.85 237.45 280.26 C 242.15 277.13 246.01 272.30 246.01 269.56 C 246.01 268.84 246.70 267.41 247.54 266.39 C 251.78 261.20 254.30 254.01 252.60 251.96 C 251.71 250.89 251.68 250.89 249.28 251.62 Z M 524.65 250.77 C 531.70 255.47 534.54 258.28 536.81 262.80 C 538.02 265.20 539.22 268.50 539.49 270.13 C 539.75 271.77 540.38 273.57 540.88 274.14 C 541.39 274.71 541.97 276.49 542.19 278.10 C 542.51 280.51 542.33 281.28 541.18 282.51 C 539.13 284.67 536.18 284.42 531.54 281.68 C 526.59 278.75 523.15 275.00 522.05 271.34 C 521.58 269.77 520.41 267.44 519.45 266.17 C 515.44 260.84 513.49 254.63 514.77 251.25 C 516.20 247.49 519.49 247.33 524.65 250.77 Z M 520.72 251.62 C 523.94 252.59 529.85 256.61 532.44 259.57 C 533.61 260.92 536.95 268.06 537.46 270.31 C 537.81 271.85 537.61 272.24 536.17 272.78 C 533.48 273.80 532.34 273.62 532.94 272.28 C 533.90 270.15 533.43 267.53 531.62 264.92 C 529.12 261.31 522.80 254.41 521.22 253.57 C 518.44 252.08 519.35 253.80 523.85 258.53 C 529.64 264.63 530.85 266.82 530.37 270.38 C 530.12 272.23 530.36 273.63 531.12 274.94 C 532.27 276.89 532.16 276.87 536.96 275.65 C 538.97 275.13 540.90 278.03 539.85 279.99 C 538.93 281.70 534.93 281.85 532.55 280.26 C 527.85 277.13 523.99 272.30 523.99 269.56 C 523.99 268.84 523.30 267.41 522.46 266.39 C 518.22 261.20 515.70 254.01 517.40 251.96 C 518.29 250.89 518.32 250.89 520.72 251.62 Z M 245.35 915.23 C 238.30 910.53 235.46 907.72 233.19 903.20 C 231.98 900.80 230.78 897.50 230.51 895.87 C 230.25 894.23 229.62 892.43 229.12 891.86 C 228.61 891.29 228.03 889.51 227.81 887.90 C 227.49 885.49 227.67 884.72 228.82 883.49 C 230.87 881.33 233.82 881.58 238.46 884.32 C 243.41 887.25 246.85 891.00 247.95 894.66 C 248.42 896.23 249.59 898.56 250.55 899.83 C 254.56 905.16 256.51 911.37 255.23 914.75 C 253.80 918.51 250.51 918.67 245.35 915.23 Z M 249.28 914.38 C 246.06 913.41 240.15 909.39 237.56 906.43 C 236.39 905.08 233.05 897.94 232.54 895.69 C 232.19 894.15 232.39 893.76 233.83 893.22 C 236.52 892.20 237.66 892.38 237.06 893.72 C 236.10 895.85 236.57 898.47 238.38 901.08 C 240.88 904.69 247.20 911.59 248.78 912.43 C 251.56 913.92 250.65 912.20 246.15 907.47 C 240.36 901.37 239.15 899.18 239.63 895.62 C 239.88 893.77 239.64 892.37 238.88 891.06 C 237.73 889.11 237.84 889.13 233.04 890.35 C 231.03 890.87 229.10 887.97 230.15 886.01 C 231.07 884.30 235.07 884.15 237.45 885.74 C 242.15 888.87 246.01 893.70 246.01 896.44 C 246.01 897.16 246.70 898.59 247.54 899.61 C 251.78 904.80 254.30 911.99 252.60 914.04 C 251.71 915.11 251.68 915.11 249.28 914.38 Z M 524.65 915.23 C 531.70 910.53 534.54 907.72 536.81 903.20 C 538.02 900.80 539.22 897.50 539.49 895.87 C 539.75 894.23 540.38 892.43 540.88 891.86 C 541.39 891.29 541.97 889.51 542.19 887.90 C 542.51 885.49 542.33 884.72 541.18 883.49 C 539.13 881.33 536.18 881.58 531.54 884.32 C 526.59 887.25 523.15 891.00 522.05 894.66 C 521.58 896.23 520.41 898.56 519.45 899.83 C 515.44 905.16 513.49 911.37 514.77 914.75 C 516.20 918.51 519.49 918.67 524.65 915.23 Z M 520.72 914.38 C 523.94 913.41 529.85 909.39 532.44 906.43 C 533.61 905.08 536.95 897.94 537.46 895.69 C 537.81 894.15 537.61 893.76 536.17 893.22 C 533.48 892.20 532.34 892.38 532.94 893.72 C 533.90 895.85 533.43 898.47 531.62 901.08 C 529.12 904.69 522.80 911.59 521.22 912.43 C 518.44 913.92 519.35 912.20 523.85 907.47 C 529.64 901.37 530.85 899.18 530.37 895.62 C 530.12 893.77 530.36 892.37 531.12 891.06 C 532.27 889.11 532.16 889.13 536.96 890.35 C 538.97 890.87 540.90 887.97 539.85 886.01 C 538.93 884.30 534.93 884.15 532.55 885.74 C 527.85 888.87 523.99 893.70 523.99 896.44 C 523.99 897.16 523.30 898.59 522.46 899.61 C 518.22 904.80 515.70 911.99 517.40 914.04 C 518.29 915.11 518.32 915.11 520.72 914.38 Z M 206.64 297.43 C 204.84 298.90 202.38 301.58 201.17 303.40 C 199.97 305.22 198.71 306.87 198.38 307.08 C 196.42 308.29 191.22 322.65 191.22 326.86 C 191.22 329.34 190.04 333.42 188.09 337.74 C 185.82 342.77 185.00 354.45 186.69 357.72 C 187.55 359.38 190.19 360.76 192.53 360.76 C 197.12 360.76 204.18 353.45 208.18 344.56 C 209.05 342.62 210.96 340.02 212.79 338.26 C 214.50 336.61 216.80 333.91 217.90 332.26 C 220.22 328.78 223.01 322.36 223.01 320.53 C 223.01 319.00 225.36 316.73 229.73 314.05 C 233.38 311.82 235.00 308.98 233.85 306.84 C 233.13 305.49 228.16 302.56 226.59 302.56 C 226.00 302.56 224.08 301.40 222.32 299.98 C 214.50 293.68 211.78 293.24 206.64 297.43 Z M 208.91 298.27 C 206.06 300.01 198.79 309.09 197.31 312.77 C 195.88 316.30 193.68 324.73 193.35 327.93 C 193.16 329.84 192.77 331.86 192.49 332.43 C 189.36 338.83 188.77 341.14 188.39 348.49 C 187.99 356.24 188.41 357.52 191.56 358.11 C 194.23 358.61 195.84 357.89 199.36 354.65 C 202.17 352.06 203.65 349.71 206.02 344.07 C 206.89 341.99 209.00 339.14 212.04 335.92 C 214.61 333.20 217.02 330.32 217.40 329.52 C 219.90 324.21 220.37 322.89 221.72 317.26 C 222.08 315.75 222.64 315.30 225.13 314.51 C 227.27 313.83 228.16 313.22 228.29 312.35 C 228.39 311.67 229.15 310.81 229.98 310.44 C 230.92 310.01 231.42 309.35 231.30 308.71 C 230.99 307.14 229.08 307.09 227.46 308.61 C 225.58 310.38 224.88 309.62 226.25 307.30 C 226.84 306.30 227.19 305.34 227.02 305.17 C 226.85 305.00 225.60 304.71 224.25 304.53 C 222.40 304.28 221.62 303.83 221.05 302.68 C 219.98 300.49 214.87 297.16 212.59 297.16 C 211.56 297.16 209.90 297.66 208.91 298.27 Z M 563.36 297.43 C 565.16 298.90 567.62 301.58 568.83 303.40 C 570.03 305.22 571.29 306.87 571.62 307.08 C 573.58 308.29 578.78 322.65 578.78 326.86 C 578.78 329.34 579.96 333.42 581.91 337.74 C 584.18 342.77 585.00 354.45 583.31 357.72 C 582.45 359.38 579.81 360.76 577.47 360.76 C 572.88 360.76 565.82 353.45 561.82 344.56 C 560.95 342.62 559.04 340.02 557.21 338.26 C 555.50 336.61 553.20 333.91 552.10 332.26 C 549.78 328.78 546.99 322.36 546.99 320.53 C 546.99 319.00 544.64 316.73 540.27 314.05 C 536.62 311.82 535.00 308.98 536.15 306.84 C 536.87 305.49 541.84 302.56 543.41 302.56 C 544.00 302.56 545.92 301.40 547.68 299.98 C 555.50 293.68 558.22 293.24 563.36 297.43 Z M 561.09 298.27 C 563.94 300.01 571.21 309.09 572.69 312.77 C 574.12 316.30 576.32 324.73 576.65 327.93 C 576.84 329.84 577.23 331.86 577.51 332.43 C 580.64 338.83 581.23 341.14 581.61 348.49 C 582.01 356.24 581.59 357.52 578.44 358.11 C 575.77 358.61 574.16 357.89 570.64 354.65 C 567.83 352.06 566.35 349.71 563.98 344.07 C 563.11 341.99 561.00 339.14 557.96 335.92 C 555.39 333.20 552.98 330.32 552.60 329.52 C 550.10 324.21 549.63 322.89 548.28 317.26 C 547.92 315.75 547.36 315.30 544.87 314.51 C 542.73 313.83 541.84 313.22 541.71 312.35 C 541.61 311.67 540.85 310.81 540.02 310.44 C 539.08 310.01 538.58 309.35 538.70 308.71 C 539.01 307.14 540.92 307.09 542.54 308.61 C 544.42 310.38 545.12 309.62 543.75 307.30 C 543.16 306.30 542.81 305.34 542.98 305.17 C 543.15 305.00 544.40 304.71 545.75 304.53 C 547.60 304.28 548.38 303.83 548.95 302.68 C 550.02 300.49 555.13 297.16 557.41 297.16 C 558.44 297.16 560.10 297.66 561.09 298.27 Z M 206.64 868.57 C 204.84 867.10 202.38 864.42 201.17 862.60 C 199.97 860.78 198.71 859.13 198.38 858.92 C 196.42 857.71 191.22 843.35 191.22 839.14 C 191.22 836.66 190.04 832.58 188.09 828.26 C 185.82 823.23 185.00 811.55 186.69 808.28 C 187.55 806.62 190.19 805.24 192.53 805.24 C 197.12 805.24 204.18 812.55 208.18 821.44 C 209.05 823.38 210.96 825.98 212.79 827.74 C 214.50 829.39 216.80 832.09 217.90 833.74 C 220.22 837.22 223.01 843.64 223.01 845.47 C 223.01 847.00 225.36 849.27 229.73 851.95 C 233.38 854.18 235.00 857.02 233.85 859.16 C 233.13 860.51 228.16 863.44 226.59 863.44 C 226.00 863.44 224.08 864.60 222.32 866.02 C 214.50 872.32 211.78 872.76 206.64 868.57 Z M 208.91 867.73 C 206.06 865.99 198.79 856.91 197.31 853.23 C 195.88 849.70 193.68 841.27 193.35 838.07 C 193.16 836.16 192.77 834.14 192.49 833.57 C 189.36 827.17 188.77 824.86 188.39 817.51 C 187.99 809.76 188.41 808.48 191.56 807.89 C 194.23 807.39 195.84 808.11 199.36 811.35 C 202.17 813.94 203.65 816.29 206.02 821.93 C 206.89 824.01 209.00 826.86 212.04 830.08 C 214.61 832.80 217.02 835.68 217.40 836.48 C 219.90 841.79 220.37 843.11 221.72 848.74 C 222.08 850.25 222.64 850.70 225.13 851.49 C 227.27 852.17 228.16 852.78 228.29 853.65 C 228.39 854.33 229.15 855.19 229.98 855.56 C 230.92 855.99 231.42 856.65 231.30 857.29 C 230.99 858.86 229.08 858.91 227.46 857.39 C 225.58 855.62 224.88 856.38 226.25 858.70 C 226.84 859.70 227.19 860.66 227.02 860.83 C 226.85 861.00 225.60 861.29 224.25 861.47 C 222.40 861.72 221.62 862.17 221.05 863.32 C 219.98 865.51 214.87 868.84 212.59 868.84 C 211.56 868.84 209.90 868.34 208.91 867.73 Z M 563.36 868.57 C 565.16 867.10 567.62 864.42 568.83 862.60 C 570.03 860.78 571.29 859.13 571.62 858.92 C 573.58 857.71 578.78 843.35 578.78 839.14 C 578.78 836.66 579.96 832.58 581.91 828.26 C 584.18 823.23 585.00 811.55 583.31 808.28 C 582.45 806.62 579.81 805.24 577.47 805.24 C 572.88 805.24 565.82 812.55 561.82 821.44 C 560.95 823.38 559.04 825.98 557.21 827.74 C 555.50 829.39 553.20 832.09 552.10 833.74 C 549.78 837.22 546.99 843.64 546.99 845.47 C 546.99 847.00 544.64 849.27 540.27 851.95 C 536.62 854.18 535.00 857.02 536.15 859.16 C 536.87 860.51 541.84 863.44 543.41 863.44 C 544.00 863.44 545.92 864.60 547.68 866.02 C 555.50 872.32 558.22 872.76 563.36 868.57 Z M 561.09 867.73 C 563.94 865.99 571.21 856.91 572.69 853.23 C 574.12 849.70 576.32 841.27 576.65 838.07 C 576.84 836.16 577.23 834.14 577.51 833.57 C 580.64 827.17 581.23 824.86 581.61 817.51 C 582.01 809.76 581.59 808.48 578.44 807.89 C 575.77 807.39 574.16 808.11 570.64 811.35 C 567.83 813.94 566.35 816.29 563.98 821.93 C 563.11 824.01 561.00 826.86 557.96 830.08 C 555.39 832.80 552.98 835.68 552.60 836.48 C 550.10 841.79 549.63 843.11 548.28 848.74 C 547.92 850.25 547.36 850.70 544.87 851.49 C 542.73 852.17 541.84 852.78 541.71 853.65 C 541.61 854.33 540.85 855.19 540.02 855.56 C 539.08 855.99 538.58 856.65 538.70 857.29 C 539.01 858.86 540.92 858.91 542.54 857.39 C 544.42 855.62 545.12 856.38 543.75 858.70 C 543.16 859.70 542.81 860.66 542.98 860.83 C 543.15 861.00 544.40 861.29 545.75 861.47 C 547.60 861.72 548.38 862.17 548.95 863.32 C 550.02 865.51 555.13 868.84 557.41 868.84 C 558.44 868.84 560.10 868.34 561.09 867.73 Z M 147.16 388.80 C 141.76 392.94 139.70 401.03 142.00 409.04 C 142.58 411.05 143.04 414.94 143.02 417.69 C 142.99 421.94 143.36 423.41 145.47 427.53 C 148.87 434.15 151.72 437.48 153.99 437.48 C 156.81 437.48 159.67 435.68 162.66 432.03 C 165.24 428.88 165.62 428.69 170.21 428.20 C 173.96 427.80 175.98 427.08 179.27 424.97 C 181.60 423.48 185.50 421.27 187.94 420.06 C 197.83 415.18 200.30 407.22 194.53 398.89 C 190.74 393.42 179.81 390.25 169.16 391.52 C 164.75 392.05 164.10 391.93 159.30 389.62 C 153.28 386.74 150.12 386.52 147.16 388.80 Z M 149.18 390.58 C 148.23 391.25 146.49 393.31 145.32 395.17 C 142.85 399.07 142.52 403.16 144.33 407.50 C 144.96 409.02 145.57 412.97 145.69 416.28 C 145.90 422.53 147.84 428.09 151.38 432.59 C 153.75 435.59 157.44 434.79 161.09 430.47 C 162.67 428.60 162.73 427.86 161.30 427.86 C 160.69 427.86 160.19 427.20 160.19 426.38 C 160.19 424.55 161.55 424.46 162.84 426.19 C 163.60 427.23 163.98 427.30 164.73 426.56 C 165.25 426.05 166.85 425.64 168.30 425.63 C 172.05 425.63 176.52 424.24 178.72 422.41 C 180.47 420.95 182.26 419.97 188.94 416.82 C 194.28 414.30 196.14 408.51 193.56 402.48 C 192.38 399.73 191.40 398.72 188.54 397.28 C 179.35 392.69 165.37 393.87 165.37 399.24 C 165.37 402.45 167.09 405.66 168.81 405.66 C 172.60 405.66 171.38 407.80 166.73 409.30 C 164.00 410.18 163.15 411.26 163.15 413.86 C 163.15 415.70 162.85 415.65 160.68 413.47 C 159.03 411.82 158.63 411.74 156.13 412.51 C 152.76 413.54 151.90 415.50 152.40 420.92 C 152.97 427.05 153.49 428.49 155.27 428.74 C 157.79 429.10 157.26 431.19 154.64 431.19 C 152.64 431.19 152.30 430.83 151.16 427.49 C 149.74 423.32 149.48 417.61 150.55 413.89 C 151.09 412.00 150.99 410.87 150.11 409.18 C 148.61 406.29 149.86 404.83 151.59 407.47 C 152.64 409.07 153.38 409.36 156.48 409.36 C 161.50 409.36 163.89 408.16 163.89 405.64 C 163.89 398.84 161.32 393.03 157.80 391.91 C 155.75 391.26 152.38 392.89 151.43 394.98 C 150.97 395.97 150.26 396.78 149.85 396.78 C 148.55 396.78 149.02 394.11 150.57 392.71 C 152.04 391.38 152.58 389.38 151.48 389.38 C 151.16 389.38 150.13 389.92 149.18 390.58 Z M 622.84 388.80 C 628.24 392.94 630.30 401.03 628.00 409.04 C 627.42 411.05 626.96 414.94 626.98 417.69 C 627.01 421.94 626.64 423.41 624.53 427.53 C 621.13 434.15 618.28 437.48 616.01 437.48 C 613.19 437.48 610.33 435.68 607.34 432.03 C 604.76 428.88 604.38 428.69 599.79 428.20 C 596.04 427.80 594.02 427.08 590.73 424.97 C 588.40 423.48 584.50 421.27 582.06 420.06 C 572.17 415.18 569.70 407.22 575.47 398.89 C 579.26 393.42 590.19 390.25 600.84 391.52 C 605.25 392.05 605.90 391.93 610.70 389.62 C 616.72 386.74 619.88 386.52 622.84 388.80 Z M 620.82 390.58 C 621.77 391.25 623.51 393.31 624.68 395.17 C 627.15 399.07 627.48 403.16 625.67 407.50 C 625.04 409.02 624.43 412.97 624.31 416.28 C 624.10 422.53 622.16 428.09 618.62 432.59 C 616.25 435.59 612.56 434.79 608.91 430.47 C 607.33 428.60 607.27 427.86 608.70 427.86 C 609.31 427.86 609.81 427.20 609.81 426.38 C 609.81 424.55 608.45 424.46 607.16 426.19 C 606.40 427.23 606.02 427.30 605.27 426.56 C 604.75 426.05 603.15 425.64 601.70 425.63 C 597.95 425.63 593.48 424.24 591.28 422.41 C 589.53 420.95 587.74 419.97 581.06 416.82 C 575.72 414.30 573.86 408.51 576.44 402.48 C 577.62 399.73 578.60 398.72 581.46 397.28 C 590.65 392.69 604.63 393.87 604.63 399.24 C 604.63 402.45 602.91 405.66 601.19 405.66 C 597.40 405.66 598.62 407.80 603.27 409.30 C 606.00 410.18 606.85 411.26 606.85 413.86 C 606.85 415.70 607.15 415.65 609.32 413.47 C 610.97 411.82 611.37 411.74 613.87 412.51 C 617.24 413.54 618.10 415.50 617.60 420.92 C 617.03 427.05 616.51 428.49 614.73 428.74 C 612.21 429.10 612.74 431.19 615.36 431.19 C 617.36 431.19 617.70 430.83 618.84 427.49 C 620.26 423.32 620.52 417.61 619.45 413.89 C 618.91 412.00 619.01 410.87 619.89 409.18 C 621.39 406.29 620.14 404.83 618.41 407.47 C 617.36 409.07 616.62 409.36 613.52 409.36 C 608.50 409.36 606.11 408.16 606.11 405.64 C 606.11 398.84 608.68 393.03 612.20 391.91 C 614.25 391.26 617.62 392.89 618.57 394.98 C 619.03 395.97 619.74 396.78 620.15 396.78 C 621.45 396.78 620.98 394.11 619.43 392.71 C 617.96 391.38 617.42 389.38 618.52 389.38 C 618.84 389.38 619.87 389.92 620.82 390.58 Z M 147.16 777.20 C 141.76 773.06 139.70 764.97 142.00 756.96 C 142.58 754.95 143.04 751.06 143.02 748.31 C 142.99 744.06 143.36 742.59 145.47 738.47 C 148.87 731.85 151.72 728.52 153.99 728.52 C 156.81 728.52 159.67 730.32 162.66 733.97 C 165.24 737.12 165.62 737.31 170.21 737.80 C 173.96 738.20 175.98 738.92 179.27 741.03 C 181.60 742.52 185.50 744.73 187.94 745.94 C 197.83 750.82 200.30 758.78 194.53 767.11 C 190.74 772.58 179.81 775.75 169.16 774.48 C 164.75 773.95 164.10 774.07 159.30 776.38 C 153.28 779.26 150.12 779.48 147.16 777.20 Z M 149.18 775.42 C 148.23 774.75 146.49 772.69 145.32 770.83 C 142.85 766.93 142.52 762.84 144.33 758.50 C 144.96 756.98 145.57 753.03 145.69 749.72 C 145.90 743.47 147.84 737.91 151.38 733.41 C 153.75 730.41 157.44 731.21 161.09 735.53 C 162.67 737.40 162.73 738.14 161.30 738.14 C 160.69 738.14 160.19 738.80 160.19 739.62 C 160.19 741.45 161.55 741.54 162.84 739.81 C 163.60 738.77 163.98 738.70 164.73 739.44 C 165.25 739.95 166.85 740.36 168.30 740.37 C 172.05 740.37 176.52 741.76 178.72 743.59 C 180.47 745.05 182.26 746.03 188.94 749.18 C 194.28 751.70 196.14 757.49 193.56 763.52 C 192.38 766.27 191.40 767.28 188.54 768.72 C 179.35 773.31 165.37 772.13 165.37 766.76 C 165.37 763.55 167.09 760.34 168.81 760.34 C 172.60 760.34 171.38 758.20 166.73 756.70 C 164.00 755.82 163.15 754.74 163.15 752.14 C 163.15 750.30 162.85 750.35 160.68 752.53 C 159.03 754.18 158.63 754.26 156.13 753.49 C 152.76 752.46 151.90 750.50 152.40 745.08 C 152.97 738.95 153.49 737.51 155.27 737.26 C 157.79 736.90 157.26 734.81 154.64 734.81 C 152.64 734.81 152.30 735.17 151.16 738.51 C 149.74 742.68 149.48 748.39 150.55 752.11 C 151.09 754.00 150.99 755.13 150.11 756.82 C 148.61 759.71 149.86 761.17 151.59 758.53 C 152.64 756.93 153.38 756.64 156.48 756.64 C 161.50 756.64 163.89 757.84 163.89 760.36 C 163.89 767.16 161.32 772.97 157.80 774.09 C 155.75 774.74 152.38 773.11 151.43 771.02 C 150.97 770.03 150.26 769.22 149.85 769.22 C 148.55 769.22 149.02 771.89 150.57 773.29 C 152.04 774.62 152.58 776.62 151.48 776.62 C 151.16 776.62 150.13 776.08 149.18 775.42 Z M 622.84 777.20 C 628.24 773.06 630.30 764.97 628.00 756.96 C 627.42 754.95 626.96 751.06 626.98 748.31 C 627.01 744.06 626.64 742.59 624.53 738.47 C 621.13 731.85 618.28 728.52 616.01 728.52 C 613.19 728.52 610.33 730.32 607.34 733.97 C 604.76 737.12 604.38 737.31 599.79 737.80 C 596.04 738.20 594.02 738.92 590.73 741.03 C 588.40 742.52 584.50 744.73 582.06 745.94 C 572.17 750.82 569.70 758.78 575.47 767.11 C 579.26 772.58 590.19 775.75 600.84 774.48 C 605.25 773.95 605.90 774.07 610.70 776.38 C 616.72 779.26 619.88 779.48 622.84 777.20 Z M 620.82 775.42 C 621.77 774.75 623.51 772.69 624.68 770.83 C 627.15 766.93 627.48 762.84 625.67 758.50 C 625.04 756.98 624.43 753.03 624.31 749.72 C 624.10 743.47 622.16 737.91 618.62 733.41 C 616.25 730.41 612.56 731.21 608.91 735.53 C 607.33 737.40 607.27 738.14 608.70 738.14 C 609.31 738.14 609.81 738.80 609.81 739.62 C 609.81 741.45 608.45 741.54 607.16 739.81 C 606.40 738.77 606.02 738.70 605.27 739.44 C 604.75 739.95 603.15 740.36 601.70 740.37 C 597.95 740.37 593.48 741.76 591.28 743.59 C 589.53 745.05 587.74 746.03 581.06 749.18 C 575.72 751.70 573.86 757.49 576.44 763.52 C 577.62 766.27 578.60 767.28 581.46 768.72 C 590.65 773.31 604.63 772.13 604.63 766.76 C 604.63 763.55 602.91 760.34 601.19 760.34 C 597.40 760.34 598.62 758.20 603.27 756.70 C 606.00 755.82 606.85 754.74 606.85 752.14 C 606.85 750.30 607.15 750.35 609.32 752.53 C 610.97 754.18 611.37 754.26 613.87 753.49 C 617.24 752.46 618.10 750.50 617.60 745.08 C 617.03 738.95 616.51 737.51 614.73 737.26 C 612.21 736.90 612.74 734.81 615.36 734.81 C 617.36 734.81 617.70 735.17 618.84 738.51 C 620.26 742.68 620.52 748.39 619.45 752.11 C 618.91 754.00 619.01 755.13 619.89 756.82 C 621.39 759.71 620.14 761.17 618.41 758.53 C 617.36 756.93 616.62 756.64 613.52 756.64 C 608.50 756.64 606.11 757.84 606.11 760.36 C 606.11 767.16 608.68 772.97 612.20 774.09 C 614.25 774.74 617.62 773.11 618.57 771.02 C 619.03 770.03 619.74 769.22 620.15 769.22 C 621.45 769.22 620.98 771.89 619.43 773.29 C 617.96 774.62 617.42 776.62 618.52 776.62 C 618.84 776.62 619.87 776.08 620.82 775.42 Z"/>
</svg>
